Coordinates
version=1
nRows=28
nColumns=34
inDegrees=no

Units are S.I. units (second, meters, Newtons, ...)
If the header above contains a line with 'inDegrees', this indicates whether rotational values are in degrees (yes) or radians (no).

endheader
time	pelvis_tilt	pelvis_list	pelvis_rotation	pelvis_tx	pelvis_ty	pelvis_tz	hip_flexion_r	hip_adduction_r	hip_rotation_r	knee_angle_r	ankle_angle_r	subtalar_angle_r	mtp_angle_r	hip_flexion_l	hip_adduction_l	hip_rotation_l	knee_angle_l	ankle_angle_l	subtalar_angle_l	mtp_angle_l	lumbar_extension	lumbar_bending	lumbar_rotation	arm_flex_r	arm_add_r	arm_rot_r	elbow_flex_r	pro_sup_r	arm_flex_l	arm_add_l	arm_rot_l	elbow_flex_l	pro_sup_l
0	0.310318	0.00484093	0.10451	-0.219106	1.04537	-0.210282	0.0884858	0.0370053	-0.312341	-0.0210142	0.0165388	0.298562	-0.0918042	-0.566678	-0.0527357	-0.325224	0.207307	0.510573	0.646914	-0.115262	-0.626442	-0.0197655	-0.164028	-0.174446	-0.0879051	-0.0876558	0.577419	1.78818	0.465244	-0.480649	-0.132559	0.985668	1.68274
0.01	0.313177	-0.00553597	0.110848	-0.202759	1.04553	-0.210073	0.0721682	0.053749	-0.294947	-0.0255296	-0.038287	0.253174	-0.0918063	-0.581083	-0.0703475	-0.325221	0.214801	0.508149	0.648348	-0.115101	-0.622819	-0.0070344	-0.1623	-0.175603	-0.0890761	-0.0875481	0.567084	1.78767	0.458585	-0.478498	-0.140261	0.996706	1.68826
0.02	0.315388	-0.0160227	0.116963	-0.186426	1.04596	-0.209745	0.0574541	0.0699816	-0.278952	-0.0284932	-0.0863492	0.210234	-0.0918084	-0.590914	-0.0884342	-0.323202	0.228978	0.499222	0.642656	-0.11494	-0.61878	0.0052117	-0.16026	-0.176156	-0.0901916	-0.0874523	0.557199	1.787	0.449952	-0.475541	-0.148321	1.00766	1.69268
0.03	0.316927	-0.0266178	0.122831	-0.170115	1.04667	-0.209297	0.0443801	0.0856929	-0.26442	-0.0298562	-0.127551	0.169915	-0.0918105	-0.596103	-0.106981	-0.31917	0.249887	0.483736	0.629814	-0.114779	-0.614312	0.0169539	-0.15788	-0.176101	-0.0912518	-0.0873762	0.547784	1.78619	0.439377	-0.471774	-0.156709	1.0185	1.69596
0.04	0.317725	-0.0373209	0.128382	-0.15385	1.04765	-0.208723	0.0330486	0.100865	-0.251537	-0.0294741	-0.161641	0.132687	-0.0918126	-0.596451	-0.125954	-0.313155	0.277643	0.461545	0.609804	-0.114618	-0.609388	0.0281494	-0.155072	-0.175427	-0.0922613	-0.0873404	0.538904	1.78525	0.426961	-0.467186	-0.165333	1.02916	1.69801
0.05	0.31767	-0.0481358	0.133506	-0.137674	1.04887	-0.208015	0.0236234	0.115476	-0.240629	-0.0270961	-0.188241	0.0993572	-0.0918147	-0.5916	-0.145298	-0.305238	0.312388	0.432448	0.5827	-0.114457	-0.603966	0.0387381	-0.151687	-0.174125	-0.0932357	-0.0873765	0.530689	1.78424	0.412898	-0.461757	-0.17402	1.03951	1.69872
0.06	0.316628	-0.0590668	0.138064	-0.121643	1.05032	-0.207167	0.0162875	0.129505	-0.232136	-0.02241	-0.206957	0.0709729	-0.0918168	-0.581086	-0.164938	-0.29556	0.354194	0.396292	0.548794	-0.114296	-0.598003	0.0486536	-0.147527	-0.1722	-0.0942072	-0.0875186	0.523341	1.78321	0.397485	-0.455467	-0.182527	1.04936	1.69794
0.07	0.314478	-0.0701087	0.141935	-0.105824	1.05193	-0.206177	0.0111662	0.142932	-0.226524	-0.0151436	-0.217554	0.0486192	-0.0918189	-0.564472	-0.184768	-0.28432	0.402939	0.35314	0.508713	-0.114135	-0.591481	0.057832	-0.142391	-0.169677	-0.0952278	-0.0877887	0.51713	1.78225	0.381097	-0.448308	-0.190559	1.05848	1.69557
0.08	0.311158	-0.0812193	0.145036	-0.0902845	1.05367	-0.205053	0.00824187	0.15573	-0.224189	-0.00520474	-0.220105	0.0332223	-0.091821	-0.541532	-0.204628	-0.271733	0.458194	0.303476	0.463507	-0.113974	-0.584432	0.066203	-0.136121	-0.166613	-0.0963655	-0.0881858	0.512365	1.78144	0.364152	-0.440296	-0.197804	1.06663	1.69163
0.09	0.306699	-0.092295	0.147354	-0.0750779	1.05547	-0.20381	0.00728669	0.167847	-0.225341	0.00718221	-0.21511	0.0253275	-0.0918231	-0.512363	-0.224275	-0.257986	0.519149	0.248394	0.414647	-0.113813	-0.576958	0.0736774	-0.128649	-0.16309	-0.0976965	-0.0886749	0.509362	1.78086	0.347061	-0.431482	-0.203976	1.0736	1.68625
0.1	0.301237	-0.103162	0.148959	-0.0602421	1.05727	-0.202472	0.00784643	0.179213	-0.229886	0.0214112	-0.203558	0.0248775	-0.0918252	-0.477421	-0.243365	-0.243178	0.584622	0.189722	0.363919	-0.113652	-0.569232	0.0801409	-0.120031	-0.159201	-0.099296	-0.0891759	0.508392	1.78056	0.330182	-0.421963	-0.208855	1.07919	1.67975
0.11	0.295002	-0.113578	0.149995	-0.045794	1.05901	-0.201069	0.00927378	0.189739	-0.237391	0.0365614	-0.18685	0.0311605	-0.0918273	-0.437494	-0.261466	-0.227321	0.653133	0.130034	0.31331	-0.113491	-0.561488	0.0854496	-0.110452	-0.155032	-0.101226	-0.0895661	0.509641	1.78053	0.313784	-0.411878	-0.212316	1.08328	1.67252
0.12	0.288304	-0.123259	0.150653	-0.0317298	1.06066	-0.199632	0.0107973	0.199332	-0.247126	0.0515432	-0.166637	0.042906	-0.0918293	-0.393629	-0.278088	-0.21039	0.723014	0.0725043	0.264875	-0.11333	-0.554002	0.0894356	-0.100199	-0.150645	-0.103527	-0.0896948	0.51318	1.78072	0.29803	-0.401402	-0.214346	1.0858	1.66501
0.13	0.281497	-0.131901	0.151136	-0.0180292	1.06218	-0.198184	0.0116112	0.207904	-0.258153	0.065272	-0.144603	0.058473	-0.0918314	-0.34703	-0.292733	-0.192387	0.792542	0.0205918	0.22057	-0.113168	-0.547079	0.0919193	-0.089616	-0.146062	-0.106209	-0.089407	0.518949	1.78102	0.28298	-0.390731	-0.215042	1.08673	1.65766
0.14	0.274941	-0.13922	0.151619	-0.00466553	1.06359	-0.196735	0.0109715	0.215388	-0.269428	0.0768249	-0.122271	0.0760746	-0.0918335	-0.298949	-0.304955	-0.173421	0.860066	-0.0224115	0.182068	-0.113007	-0.541015	0.0927251	-0.0790509	-0.14126	-0.109251	-0.0885711	0.526764	1.78129	0.268605	-0.380062	-0.214599	1.08608	1.65085
0.15	0.268956	-0.144982	0.15221	0.00840813	1.06494	-0.195301	0.00828189	0.221737	-0.279911	0.0855513	-0.100858	0.0939897	-0.0918356	-0.250572	-0.314413	-0.153754	0.924102	-0.0538833	0.150561	-0.112846	-0.536072	0.0916935	-0.0688067	-0.136175	-0.112602	-0.0871073	0.53634	1.78139	0.254808	-0.369573	-0.213283	1.08384	1.64483
0.16	0.263787	-0.149028	0.152931	0.0212352	1.06628	-0.193883	0.00315048	0.22693	-0.288657	0.0911247	-0.0811953	0.110732	-0.0918377	-0.202935	-0.320906	-0.13382	0.983393	-0.0723109	0.126611	-0.112685	-0.532441	0.0886953	-0.0591027	-0.130714	-0.116185	-0.0850106	0.54733	1.78121	0.241453	-0.35941	-0.211408	1.08002	1.63978
0.17	0.259571	-0.151282	0.15371	0.0338575	1.06765	-0.192477	-0.00458305	0.230967	-0.294885	0.0935364	-0.0637331	0.125161	-0.0918397	-0.156866	-0.324388	-0.114203	1.03694	-0.0775541	0.110056	-0.112523	-0.530221	0.0836433	-0.050054	-0.124776	-0.119907	-0.0823646	0.559364	1.78066	0.228383	-0.349673	-0.209295	1.0746	1.63571
0.18	0.256325	-0.15175	0.154391	0.0463109	1.06908	-0.19107	-0.0148529	0.233861	-0.298036	0.0930441	-0.0485832	0.136543	-0.0918418	-0.112958	-0.324965	-0.0955733	1.08398	-0.070857	0.100029	-0.112362	-0.529402	0.0765011	-0.0416681	-0.118276	-0.123669	-0.0793415	0.572099	1.77975	0.215445	-0.340412	-0.207244	1.06753	1.63254
0.19	0.253959	-0.150513	0.154756	0.0586246	1.07057	-0.189645	-0.0273974	0.235638	-0.297803	0.0900941	-0.0355999	0.14456	-0.0918439	-0.0715766	-0.32287	-0.0786145	1.12401	-0.0545986	0.095081	-0.112201	-0.529867	0.0672861	-0.0338602	-0.111164	-0.127375	-0.0761876	0.585252	1.77855	0.2025	-0.331632	-0.205505	1.05873	1.63013
0.2	0.252304	-0.147721	0.154563	0.0708242	1.07211	-0.188188	-0.0418104	0.236332	-0.294146	0.0852383	-0.0244645	0.149278	-0.091846	-0.032887	-0.318428	-0.0639326	1.15672	-0.0318419	0.0933972	-0.112039	-0.531399	0.05607	-0.0264815	-0.103441	-0.130948	-0.0731942	0.59863	1.77719	0.189431	-0.3233	-0.204266	1.04812	1.62825
0.21	0.251133	-0.143572	0.153584	0.0829303	1.07369	-0.186685	-0.0575993	0.235984	-0.287287	0.0790624	-0.0147629	0.151086	-0.0918481	0.00310616	-0.312023	-0.0519833	1.18201	-0.00579312	0.0930652	-0.111878	-0.533717	0.0429785	-0.0193542	-0.0951646	-0.134332	-0.0706572	0.612143	1.77583	0.17615	-0.315358	-0.203642	1.03565	1.62667
0.22	0.250198	-0.138297	0.151642	0.094962	1.07527	-0.185129	-0.0742396	0.234643	-0.277682	0.0721324	-0.00604701	0.150615	-0.0918501	0.0365113	-0.304061	-0.0430218	1.19993	0.0207001	0.0923501	-0.111716	-0.536504	0.0281868	-0.0123061	-0.0864448	-0.137505	-0.0688342	0.625801	1.77463	0.162599	-0.307741	-0.203681	1.02125	1.62514
0.23	0.24926	-0.132144	0.148635	0.106935	1.07683	-0.183515	-0.0912213	0.232377	-0.265966	0.0649594	0.00211861	0.148631	-0.0918522	0.0675053	-0.294951	-0.037085	1.21064	0.0455055	0.0899202	-0.111555	-0.539446	0.011912	-0.00519893	-0.0774332	-0.140479	-0.0679045	0.639704	1.77369	0.148756	-0.300383	-0.204383	1.0049	1.62346
0.24	0.248117	-0.125358	0.144548	0.118862	1.07831	-0.181847	-0.108085	0.229272	-0.252875	0.0579803	0.0101234	0.145927	-0.0918543	0.0962919	-0.285079	-0.0340086	1.21442	0.0673616	0.0849859	-0.111393	-0.542259	-0.00559979	0.00205598	-0.0683052	-0.143299	-0.0679425	0.654018	1.77302	0.134637	-0.293232	-0.205705	0.986591	1.62145
0.25	0.246625	-0.118176	0.13945	0.130752	1.07969	-0.18013	-0.124451	0.225437	-0.239158	0.0515479	0.0182881	0.143222	-0.0918564	0.123064	-0.274807	-0.0334747	1.21155	0.0858348	0.0773365	-0.111231	-0.544722	-0.0240891	0.00949484	-0.0592422	-0.14604	-0.0689094	0.668942	1.77253	0.120299	-0.286258	-0.207588	0.966347	1.619
0.26	0.244704	-0.110811	0.13347	0.14261	1.08092	-0.178371	-0.140036	0.221004	-0.225496	0.0459256	0.0268535	0.141084	-0.0918584	0.147974	-0.264463	-0.035081	1.20236	0.10113	0.0672812	-0.11107	-0.546685	-0.0432985	0.0171116	-0.0504137	-0.148793	-0.0706644	0.684681	1.77205	0.105845	-0.279453	-0.209969	0.944195	1.61608
0.27	0.242334	-0.103452	0.126773	0.154437	1.082	-0.176577	-0.154671	0.216126	-0.212433	0.0412844	0.0359788	0.139899	-0.0918605	0.171111	-0.254349	-0.0384203	1.18713	0.113822	0.0555227	-0.110908	-0.548084	-0.0629866	0.0248763	-0.0419649	-0.151662	-0.0729927	0.701414	1.77131	0.0914073	-0.272828	-0.21279	0.920176	1.6127
